<svg xmlns="http://www.w3.org/2000/svg" id="Layer_1" viewBox="0 0 700.26 562.25">
  <path d="M136.89,89.42c.55.6.73.95,1.01,1.07,26.36,11.57,29.3,39.98,25.27,59.7-3.29,16.07-14.07,26.33-28.72,32.87-12.4,5.54-25.58,7.37-38.97,7.48-28.81.22-57.62,0-86.43.15-4.41.02-6.03-1.09-6.02-5.83.15-59.52.15-119.03,0-178.55C3.03,1.5,4.45.09,9.25.12c29.64.2,59.31-.6,88.92.37,17.15.56,32.86,6.82,44.58,20.38,14.99,17.35,13.75,46.66-2.68,65.06-.99,1.11-2,2.2-3.18,3.49ZM75.47,147.53s0-.03,0-.05c8.66,0,17.32.27,25.97-.07,9.81-.39,16.39-7.35,16.35-16.59-.04-9.45-6.93-16.45-16.92-16.56-16.64-.19-33.29.02-49.94-.12-3.42-.03-4.73,1.02-4.66,4.52.18,8.14.19,16.29,0,24.42-.09,3.6,1.4,4.56,4.74,4.49,8.15-.16,16.31-.05,24.47-.05ZM46.38,41.81c0,10.54-.1,20.45.16,30.35.03.96,2.31,2.65,3.57,2.66,13.97.18,27.94.33,41.9.01,9.88-.23,16.96-7.62,16.9-16.74-.06-9.36-7.45-16.2-17.7-16.27-9.81-.07-19.62-.02-29.43-.02-4.94,0-9.87,0-15.39,0Z" style="fill: #c1272d;stroke: #fff;stroke-width: 3px;"/>
  <path d="M182.9,95.27c0-29.61.12-59.22-.11-88.83-.04-5.15,1.57-6.39,6.54-6.37,43.5.18,86.99.1,130.49.11,6.47,0,6.48.02,6.49,6.71.01,9.32,0,18.63,0,27.95,0,6.88-.01,6.92-6.76,6.92-28.33.01-56.66,0-84.99,0-1.33,0-2.67.1-4,0-3.51-.29-4.64,1.33-4.57,4.72.17,7.82.24,15.64-.03,23.45-.14,3.99,1.29,5.07,5.17,5.05,25.66-.14,51.33-.08,76.99-.07,6.52,0,6.54.02,6.55,6.61.02,9.15.02,18.3,0,27.45,0,6.64-.02,6.66-6.51,6.67-25.16.01-50.33,0-75.49.01-6.61,0-6.62.03-6.63,6.59-.01,7.32.23,14.65-.09,21.96-.19,4.33,1.12,5.71,5.59,5.68,29.16-.19,58.33-.1,87.49-.09q7.27,0,7.27,7.36c0,9.48-.13,18.97.06,28.45.07,3.59-.99,5.03-4.77,5.02-44.66-.09-89.33-.1-133.99.02-4.33.01-4.76-2.05-4.75-5.53.08-29.94.05-59.89.05-89.83Z" style="fill: #c1272d;stroke: #fff;stroke-width: 3px;"/>
  <path d="M342.06,191.54c2.29-5.35,4.4-10.35,6.58-15.33,24.77-56.31,49.59-112.6,74.23-168.97,1.73-3.95,3.7-5.49,8.08-5.32,9.48.36,18.99.29,28.48.02,3.73-.1,5.59,1.11,7.07,4.55,21.35,49.64,42.83,99.22,64.29,148.82,5.14,11.89,10.28,23.77,15.76,36.44-2.13.27-3.65.63-5.17.63-12.33.04-24.66-.09-36.98.09-3.59.05-5.34-1.35-6.66-4.56-4.56-11.07-9.51-21.98-14.04-33.05-1.34-3.28-3.16-4.48-6.69-4.46-21.49.13-42.98.14-64.47,0-3.75-.03-5.64,1.28-7.02,4.74-4.43,11.12-9.09,22.15-13.95,33.09-.77,1.73-3.06,3.93-4.69,3.97-13.82.31-27.65.19-41.47.14-.92,0-1.85-.43-3.34-.81ZM444.85,64.62l-1.29.03c-6.17,14.75-12.33,29.5-18.68,44.68h39.15c-6.56-15.29-12.87-30-19.18-44.71Z" style="fill: #c1272d;stroke: #fff;stroke-width: 3px;"/>
  <path d="M642.88,116.09c0,22.95-.11,45.89.09,68.84.04,4.43-1.38,5.77-5.69,5.67-10.32-.24-20.66-.29-30.98.02-4.75.14-6.27-1.26-6.25-6.15.17-45.23.1-90.46.1-135.68q0-7.05-7.16-7.06c-14.83,0-29.65-.13-44.47.08-4.28.06-5.89-1.14-5.76-5.62.29-10.3.18-20.62.06-30.92-.04-3.76,1.22-5.2,5.22-5.19,48.97.12,97.95.11,146.92,0,3.94,0,5.31,1.34,5.26,5.15-.13,10.47-.17,20.95.04,31.42.08,3.92-1.33,5.18-5.19,5.14-15.16-.16-30.32-.07-45.47-.06-6.68,0-6.7.02-6.7,6.52,0,22.61,0,45.23,0,67.84Z" style="fill: #c1272d;stroke: #fff;stroke-width: 3px;"/>
  <path d="M.11,464.69c0-30.44.11-60.88-.11-91.32-.04-5.04,1.37-6.45,6.45-6.43,46.49.19,92.98.18,139.47.02,4.69-.02,6.41,1.12,6.27,6.06-.34,11.97-.26,23.95-.03,35.92.08,4.22-1.44,5.36-5.49,5.34-29.83-.13-59.65.05-89.48-.19-5.13-.04-6.73,1.47-6.38,6.47.4,5.79.29,11.65.03,17.46-.18,3.94,1.23,5.09,5.15,5.07,25.83-.16,51.66.05,77.48-.19,4.94-.04,6.72,1.12,6.54,6.33-.39,11.3-.11,22.62-.12,33.93q0,7.18-6.99,7.19c-25.49,0-50.99.11-76.48-.09-4.47-.04-5.65,1.38-5.61,5.69.2,20.12-.03,40.25.18,60.38.05,4.53-1.25,6.02-5.9,5.92-13.16-.3-26.33-.29-39.49,0-4.55.1-5.59-1.5-5.57-5.74.15-30.6.08-61.21.08-91.82ZM4.68,558.17c12.38,0,23.87-.2,35.34.1,4.73.12,6.36-1.24,6.3-6.13-.25-20.12.02-40.25-.19-60.38-.05-4.61,1.42-5.91,5.99-5.88,25.16.2,50.32.1,75.48.1q7.72,0,7.73-7.96c0-8.32-.28-16.65.11-24.95.22-4.66-1.27-5.85-5.83-5.82-25.99.21-51.99.02-77.98.18-4.08.02-5.61-1.15-5.49-5.34.26-8.64.36-17.31-.03-25.94-.23-5.1,1.45-6.43,6.49-6.39,29.33.24,58.65.12,87.98.11q7.15,0,7.16-6.9c0-8.15,0-16.3,0-24.45q0-7.12-6.9-7.13c-42.99,0-85.98,0-128.97,0q-7.16,0-7.18,7.03c0,58.05,0,116.1,0,174.15,0,1.62,0,3.24,0,5.6Z" style="fill: #c1272d;"/>
  <path d="M692.69,367.06c-4.73,7.73-8.69,14.24-12.69,20.73-20.17,32.7-40.4,65.36-60.44,98.14-1.54,2.52-2.44,5.85-2.47,8.82-.21,20.62-.23,41.24-.02,61.85.04,4.37-1.22,5.74-5.64,5.65-13.32-.27-26.65-.25-39.97,0-4.28.08-5.35-1.45-5.32-5.47.16-20.28.21-40.57-.07-60.85-.05-3.59-1.12-7.61-2.99-10.67-22.96-37.62-46.16-75.09-69.29-112.61-.93-1.5-1.72-3.08-2.92-5.25,2.32-.14,3.91-.31,5.5-.31,16.66-.02,33.32.11,49.97-.11,3.87-.05,6,1.27,7.92,4.52,11.27,19.03,22.73,37.95,34.14,56.9.85,1.41,1.76,2.77,3.05,4.79,1.14-1.69,2.05-2.94,2.85-4.26,11.42-18.94,22.93-37.83,34.14-56.9,2.24-3.82,4.76-5.14,9.13-5.07,16.15.26,32.31.1,48.47.1h6.64ZM612.37,558.11v-6.32c0-18.96-.17-37.92.15-56.88.06-3.74,1.28-7.9,3.23-11.1,22.01-36.07,44.28-71.98,66.46-107.94.74-1.21,1.31-2.52,2.31-4.48-2.41,0-4.04,0-5.66,0-13,0-25.99.17-38.98-.1-4.17-.09-6.62,1.17-8.77,4.81-11.92,20.2-24.09,40.25-36.19,60.35-.96,1.6-2.06,3.13-3.46,5.25-1.55-2.49-2.61-4.16-3.63-5.85-12.1-20.09-24.26-40.15-36.22-60.33-1.86-3.13-3.97-4.26-7.57-4.21-13.49.19-26.99.07-40.48.09-1.43,0-2.86.18-4.94.32,1.06,1.93,1.77,3.37,2.61,4.73,22.1,35.82,44.28,71.59,66.19,107.52,2.03,3.32,3.21,7.68,3.28,11.58.33,19.12.13,38.25.18,57.37,0,2.16-.75,5.13,2.93,5.15,12.62.07,25.24.03,38.56.03Z" style="fill: #c1272d;"/>
  <path d="M326.37,561.54c.73-1.9,1.31-3.59,2.01-5.22,26.52-61.36,53.1-122.7,79.5-184.11,1.72-4.01,3.86-5.37,8.17-5.27,11.82.3,23.66.23,35.48.03,3.4-.06,5.01,1.22,6.31,4.23,26.58,61.7,53.26,123.35,79.9,185.02.71,1.64,1.29,3.34,2.09,5.44-1.74.19-2.99.44-4.25.44-15.49.03-30.99-.08-46.48.1-3.41.04-5.04-1.16-6.24-4.26-4.2-10.85-8.75-21.57-12.95-32.42-1.19-3.08-2.81-4.31-6.23-4.29-20.66.15-41.32.13-61.98.01-3.16-.02-4.76,1.03-5.92,3.97-4.32,10.98-8.79,21.92-13.5,32.74-.75,1.73-3.01,3.95-4.61,3.98-16.32.29-32.65.17-48.98.14-.61,0-1.22-.28-2.33-.54ZM533.79,558.13c-3.86-8.93-7.28-16.84-10.7-24.75-22.57-52.22-45.17-104.41-67.62-156.68-1.68-3.9-3.65-5.59-8.08-5.42-9.48.36-19,.35-28.49,0-4.35-.16-6.41,1.31-8.12,5.29-25.3,58.82-50.78,117.57-76.21,176.34-.64,1.48-1.15,3-2.01,5.25,14.05,0,27.34-.11,40.63.07,3.39.05,5.03-1.17,6.24-4.27,4.32-10.99,9.02-21.83,13.32-32.82,1.23-3.15,2.95-4.21,6.29-4.19,22.5.13,44.99.16,67.49-.02,3.73-.03,5.26,1.5,6.49,4.67,4.28,11.01,8.7,21.95,13.31,32.83.64,1.51,2.58,3.51,3.95,3.53,14.13.26,28.27.16,43.49.16Z" style="fill: #c1272d;"/>
  <path d="M170.32,464.68c0-30.44.1-60.88-.1-91.32-.03-4.99,1.3-6.58,6.44-6.43,12.82.38,25.66.3,38.49.03,4.57-.1,5.95,1.28,5.93,5.89-.15,45.08-.09,90.16-.09,135.23q0,7.09,7.01,7.1c27.16,0,54.32.13,81.48-.11,5.16-.05,6.55,1.59,6.42,6.55-.32,11.8-.21,23.62-.04,35.43.05,3.8-1.05,5.18-5.09,5.17-45.16-.13-90.32-.15-135.47.02-4.67.02-5.02-2.11-5.01-5.74.08-30.61.04-61.21.04-91.82ZM311.1,519.71c-2.71,0-4.53,0-6.35,0-27,0-54,0-81,0-7.09,0-7.1-.02-7.1-7.05,0-45.08-.07-90.17.1-135.25.02-4.84-1.37-6.3-6.18-6.12-9.65.35-19.33.1-28.99.11-6.66,0-6.68.02-6.69,6.44,0,57.89,0,115.79,0,173.68,0,6.62.02,6.65,6.53,6.65,41,0,82,0,122.99,0,1.17,0,2.51.33,3.46-.14,1.24-.61,3.07-1.84,3.09-2.83.22-11.6.14-23.2.14-35.49Z" style="fill: #c1272d;"/>
  <path d="M548.92,207.2c11.91,0,22.77.75,33.48-.22,10.27-.93,16.37,2.25,21.05,11.71,6.02,12.17,13.8,23.46,21.24,35.84,1.34-1.99,2.38-3.39,3.28-4.88,7.73-12.82,15.34-25.71,23.25-38.42,1.12-1.79,3.63-3.8,5.54-3.85,13.48-.32,26.98-.17,40.47-.13.78,0,1.57.29,3.04.58-1.18,2.18-2.09,4.06-3.18,5.83-16.58,26.9-33.26,53.74-49.68,80.74-1.78,2.93-2.83,6.75-2.91,10.19-.32,14.13-.27,28.27-.05,42.4.06,4.2-.95,5.95-5.53,5.8-9.48-.32-18.99-.28-28.48-.01-4.27.12-5.39-1.48-5.35-5.5.18-14.46.22-28.93-.05-43.39-.06-3.13-.98-6.62-2.6-9.28-16.7-27.41-33.63-54.69-50.48-82.01-.85-1.38-1.6-2.82-3.04-5.4ZM556.49,211.39c1.52,2.57,2.41,4.14,3.35,5.67,15.72,25.48,31.52,50.92,47.06,76.51,1.7,2.8,2.68,6.46,2.76,9.75.31,13.46.2,26.94.09,40.41-.03,3.33.96,4.81,4.55,4.7,6.99-.21,14-.24,20.99.01,3.8.14,4.84-1.28,4.8-4.91-.17-13.47-.24-26.94.06-40.41.07-3.28,1.07-6.94,2.77-9.74,15.55-25.59,31.34-51.02,47.05-76.51.92-1.49,1.7-3.06,3.07-5.55-11.31,0-21.58.12-31.85-.07-3.58-.07-5.78,1.06-7.63,4.21-8.43,14.34-17.09,28.54-25.69,42.78-.82,1.36-1.77,2.65-3.02,4.5-1.27-1.91-2.2-3.22-3.03-4.6-8.59-14.24-17.12-28.53-25.82-42.7-1.02-1.66-2.97-3.83-4.54-3.87-11.28-.33-22.58-.18-34.95-.18Z" style="fill: #c1272d;"/>
  <path d="M107.93,274.57c12.12,7.31,16.63,18.36,17.56,31.55,1.43,20.42-8.02,35.79-27.65,42.16-8.1,2.63-16.91,4-25.44,4.22-22.13.57-44.3.07-66.44.29-4.63.05-5.94-1.41-5.93-5.95.14-44.55.16-89.11-.02-133.66-.02-4.93,1.61-6.13,6.3-6.08,22.31.22,44.64-.13,66.94.25,6.03.1,12.41,1.14,17.99,3.34,30.06,11.86,31.04,40.56,19.54,59.47-.78,1.28-1.63,2.51-2.86,4.4ZM101.04,275.56c.96-1.15,1.47-1.79,2.01-2.41,19.21-22.04,10.86-51.32-17.13-59.71-3.47-1.04-7.17-1.76-10.77-1.8-21.64-.24-43.29-.12-64.92-.43-4.4-.06-5.66,1.15-5.64,5.56.16,41.88.14,83.77.02,125.65-.01,4.35.99,6.12,5.81,6.06,20.81-.26,41.62-.04,62.43-.14,9.74-.05,19.23-1.65,28.12-5.88,20.59-9.78,27.52-38.03,13.6-56.2-2.27-2.96-5.55-5.17-8.49-7.58-1.37-1.13-3.04-1.9-5.05-3.13Z" style="fill: #c1272d;"/>
  <path d="M406.92,274.56c15.94,10.06,18.57,25.26,17.16,41.76-1.07,12.49-7.88,21.69-18.55,28.01-10.32,6.11-21.73,8.26-33.55,8.33-22.49.12-44.98-.05-67.47.11-4.07.03-5.5-1.16-5.49-5.35.12-44.9.13-89.8-.01-134.7-.01-4.45,1.45-5.64,5.75-5.6,22.82.18,45.66-.34,68.46.34,7.25.22,14.99,2.19,21.5,5.4,21.78,10.74,28.06,35.1,15.38,56.58-.92,1.56-1.91,3.08-3.18,5.13ZM400.43,275.04c.76-.92,1.59-1.93,2.42-2.94,17.74-21.45,9.4-50.1-17.12-58.36-3.93-1.22-8.14-2.05-12.24-2.1-21.83-.28-43.66-.19-65.49-.39-3.34-.03-4.27,1.15-4.26,4.33.08,42.59.09,85.18-.01,127.77,0,3.94,1.31,5.12,5.2,5.09,21.17-.16,42.36.52,63.49-.35,9.28-.38,19.04-2.34,27.52-6.02,21.13-9.14,27.57-38.53,12.94-56.43-3.28-4.01-7.97-6.86-12.45-10.61Z" style="fill: #c1272d;"/>
  <path d="M544.92,274.5c16.61,10.79,19.04,26.77,16.84,43.86-1.72,13.39-10.24,22.43-22.29,28.12-9.51,4.49-19.66,6.17-30.1,6.2-22.16.05-44.33-.1-66.49.11-4.56.04-5.97-1.29-5.96-5.9.15-44.58.17-89.16-.01-133.74-.02-4.98,1.66-6.09,6.32-6.04,22.33.21,44.66.13,66.99.08,11.08-.02,21.04,3.31,29.7,10.11,15.82,12.42,19.13,34.11,8.17,52.19-.94,1.54-1.92,3.06-3.16,5.02ZM537.98,275.55c1.1-1.34,1.91-2.35,2.74-3.34,17.75-21.09,9.81-49.64-16.36-58.25-4.05-1.33-8.45-2.24-12.69-2.3-21.81-.3-43.63-.17-65.44-.4-4.18-.04-4.93,1.77-4.92,5.41.09,42.23.1,84.46-.02,126.69-.01,3.95,1.21,5.12,5.12,5.09,21.32-.16,42.64.02,63.95-.12,9.57-.06,18.91-1.73,27.61-5.96,10.15-4.93,17.68-12.41,19.25-23.85,2.88-20.96-1.93-34.05-19.24-42.97Z" style="fill: #c1272d;"/>
  <path d="M208.09,204.51c41.82,0,75.47,33.55,75.74,75.53.27,41.17-34.27,75.42-76.03,75.36-41.8-.05-75.2-33.78-75.17-75.89.04-41.64,33.6-75,75.45-75.01ZM279.2,279.89c.04-39.25-31.54-71.01-70.65-71.06-39.95-.05-71.66,31.4-71.67,71.08,0,39.38,31.83,71.22,71.19,71.19,39.43-.03,71.1-31.73,71.14-71.2Z" style="fill: #c1272d;"/>
  <path d="M4.68,558.17c0-2.36,0-3.98,0-5.6,0-58.05,0-116.1,0-174.15q0-7.02,7.18-7.03c42.99,0,85.98,0,128.97,0q6.9,0,6.9,7.13c0,8.15,0,16.3,0,24.45q0,6.89-7.16,6.9c-29.33,0-58.65.12-87.98-.11-5.04-.04-6.72,1.29-6.49,6.39.39,8.63.29,17.3.03,25.94-.12,4.2,1.4,5.37,5.49,5.34,25.99-.15,51.99.03,77.98-.18,4.56-.04,6.05,1.15,5.83,5.82-.39,8.3-.11,16.63-.11,24.95q0,7.96-7.73,7.96c-25.16,0-50.32.11-75.48-.1-4.57-.04-6.03,1.27-5.99,5.88.21,20.12-.05,40.25.19,60.38.06,4.9-1.56,6.25-6.3,6.13-11.48-.29-22.96-.1-35.34-.1Z" style="fill: #fff;"/>
  <path d="M612.37,558.11c-13.32,0-25.94.04-38.56-.03-3.68-.02-2.93-2.99-2.93-5.15-.05-19.13.15-38.25-.18-57.37-.07-3.9-1.25-8.26-3.28-11.58-21.91-35.93-44.09-71.7-66.19-107.52-.84-1.36-1.55-2.8-2.61-4.73,2.08-.14,3.51-.31,4.94-.32,13.49-.02,26.99.1,40.48-.09,3.6-.05,5.72,1.08,7.57,4.21,11.96,20.18,24.12,40.23,36.22,60.33,1.02,1.69,2.08,3.36,3.63,5.85,1.4-2.12,2.49-3.65,3.46-5.25,12.1-20.09,24.27-40.15,36.19-60.35,2.15-3.64,4.59-4.9,8.77-4.81,12.99.27,25.99.1,38.98.1,1.63,0,3.25,0,5.66,0-1,1.96-1.56,3.28-2.31,4.48-22.18,35.97-44.44,71.88-66.46,107.94-1.95,3.2-3.16,7.36-3.23,11.1-.32,18.95-.15,37.92-.15,56.88v6.32Z" style="fill: #fff;"/>
  <path d="M533.79,558.13c-15.22,0-29.36.1-43.49-.16-1.37-.03-3.3-2.02-3.95-3.53-4.61-10.87-9.03-21.82-13.31-32.83-1.23-3.18-2.76-4.7-6.49-4.67-22.5.18-44.99.15-67.49.02-3.35-.02-5.06,1.04-6.29,4.19-4.3,10.99-9,21.83-13.32,32.82-1.22,3.09-2.85,4.31-6.24,4.27-13.29-.18-26.59-.07-40.63-.07.86-2.25,1.37-3.78,2.01-5.25,25.43-58.77,50.9-117.52,76.21-176.34,1.71-3.98,3.77-5.45,8.12-5.29,9.49.35,19,.36,28.49,0,4.43-.17,6.4,1.52,8.08,5.42,22.45,52.27,45.05,104.46,67.62,156.68,3.42,7.91,6.84,15.82,10.7,24.75ZM409.76,479.93h46.32c-7.63-18.86-15.01-37.1-22.39-55.34-.45.08-.9.15-1.35.23-7.45,18.18-14.9,36.36-22.58,55.11Z" style="fill: #fff;"/>
  <path d="M311.1,519.71c0,12.29.08,23.89-.14,35.49-.02.99-1.85,2.22-3.09,2.83-.95.46-2.29.14-3.46.14-41,0-82,0-122.99,0-6.51,0-6.53-.03-6.53-6.65,0-57.89,0-115.79,0-173.68,0-6.43.02-6.44,6.69-6.44,9.67,0,19.34.25,28.99-.11,4.81-.18,6.2,1.28,6.18,6.12-.17,45.08-.1,90.17-.1,135.25,0,7.03,0,7.05,7.1,7.05,27,0,54,0,81,0,1.82,0,3.64,0,6.35,0Z" style="fill: #fff;"/>
  <path d="M556.49,211.39c12.37,0,23.67-.16,34.95.18,1.58.05,3.53,2.22,4.54,3.87,8.7,14.17,17.23,28.46,25.82,42.7.83,1.37,1.77,2.69,3.03,4.6,1.25-1.85,2.2-3.13,3.02-4.5,8.6-14.24,17.26-28.44,25.69-42.78,1.85-3.15,4.05-4.28,7.63-4.21,10.27.19,20.55.07,31.85.07-1.37,2.49-2.15,4.06-3.07,5.55-15.71,25.49-31.51,50.93-47.05,76.51-1.7,2.8-2.69,6.45-2.77,9.74-.31,13.46-.23,26.94-.06,40.41.05,3.63-.99,5.05-4.8,4.91-6.99-.25-14-.22-20.99-.01-3.59.11-4.58-1.37-4.55-4.7.11-13.47.22-26.94-.09-40.41-.07-3.29-1.06-6.95-2.76-9.75-15.55-25.59-31.34-51.02-47.06-76.51-.94-1.53-1.83-3.1-3.35-5.67Z" style="fill: #fff;"/>
  <path d="M101.04,275.56c2.01,1.22,3.68,2,5.05,3.13,2.94,2.41,6.22,4.62,8.49,7.58,13.91,18.16,6.99,46.42-13.6,56.2-8.89,4.22-18.38,5.83-28.12,5.88-20.81.1-41.63-.12-62.43.14-4.82.06-5.83-1.7-5.81-6.06.12-41.88.13-83.77-.02-125.65-.02-4.41,1.24-5.62,5.64-5.56,21.64.3,43.28.18,64.92.43,3.6.04,7.31.76,10.77,1.8,27.99,8.39,36.34,37.67,17.13,59.71-.54.62-1.05,1.26-2.01,2.41ZM57.92,317.75c5.83,0,11.66.03,17.49,0,8.1-.06,12.49-4.03,12.74-11.45.28-8.25-3.78-13.16-11.96-13.37-12.32-.31-24.65-.07-36.97-.15-2.96-.02-4.2,1.15-4.13,4.15.13,5.48.13,10.97,0,16.46-.08,3.15,1.04,4.51,4.35,4.42,6.16-.17,12.32-.05,18.49-.04ZM55.25,240.36c-5.49,0-11-.21-16.47.16-1.28.09-3.39,2.09-3.47,3.32-.37,5.79-.37,11.64,0,17.43.08,1.28,2.16,3.45,3.35,3.48,10.98.26,21.98.35,32.96.03,6.12-.18,10.04-5.35,10.01-12.1-.03-7.12-4.01-11.99-10.39-12.27-5.32-.23-10.65-.05-15.98-.06Z" style="fill: #fff;"/>
  <path d="M400.43,275.04c4.48,3.75,9.17,6.6,12.45,10.61,14.63,17.9,8.19,47.29-12.94,56.43-8.49,3.67-18.25,5.63-27.52,6.02-21.13.87-42.32.19-63.49.35-3.89.03-5.21-1.14-5.2-5.09.11-42.59.09-85.18.01-127.77,0-3.19.93-4.36,4.26-4.33,21.83.2,43.66.11,65.49.39,4.1.05,8.31.87,12.24,2.1,26.52,8.27,34.86,36.92,17.12,58.36-.84,1.01-1.67,2.03-2.42,2.94ZM356.98,317.75c5.65,0,11.3.03,16.95,0,8.42-.05,12.9-4.01,13.11-11.55.24-8.36-3.95-13.1-12.56-13.3-12.12-.27-24.26-.05-36.39-.13-2.86-.02-4.26.92-4.17,4.03.16,5.64.14,11.28,0,16.92-.07,3.01,1.13,4.12,4.11,4.06,6.31-.13,12.63-.04,18.94-.03ZM353.85,240.35c-5.15,0-10.3.12-15.44-.05-3.07-.1-4.62.72-4.5,4.14.2,5.46.15,10.94.02,16.41-.07,2.96,1.03,4.14,4.05,4.11,10.46-.11,20.92.08,31.38-.09,7.11-.11,11.07-4.83,10.99-12.53-.08-7.37-4.09-11.79-11.06-11.96-5.14-.12-10.29-.02-15.44-.03Z" style="fill: #fff;"/>
  <path d="M537.98,275.55c17.3,8.92,22.12,22.01,19.24,42.97-1.57,11.44-9.1,18.92-19.25,23.85-8.71,4.23-18.04,5.9-27.61,5.96-21.32.13-42.64-.04-63.95.12-3.91.03-5.13-1.14-5.12-5.09.12-42.23.11-84.46.02-126.69,0-3.64.74-5.46,4.92-5.41,21.81.23,43.63.1,65.44.4,4.25.06,8.64.96,12.69,2.3,26.16,8.61,34.11,37.17,16.36,58.25-.83.99-1.64,2-2.74,3.34ZM494.78,317.75c5.83,0,11.65.04,17.48,0,7.97-.07,12.48-4.14,12.78-11.47.34-8.05-3.9-13.12-12.06-13.33-12.31-.32-24.63-.07-36.95-.17-3.01-.02-4.12,1.22-4.05,4.18.14,5.48.15,10.97,0,16.45-.09,3.16,1.01,4.5,4.32,4.4,6.15-.18,12.32-.05,18.47-.04ZM492.24,240.35c-5.32,0-10.65.15-15.96-.06-3.33-.13-4.39,1.21-4.3,4.37.15,5.31.16,10.63,0,15.93-.09,3.18,1.05,4.42,4.33,4.37,10.31-.15,20.62.07,30.93-.1,7.15-.12,11.19-4.88,11.1-12.52-.08-7.34-4.14-11.79-11.14-11.97-4.99-.13-9.98-.03-14.97-.03Z" style="fill: #fff;"/>
  <path d="M279.2,279.89c-.04,39.47-31.71,71.18-71.14,71.2-39.36.03-71.2-31.81-71.19-71.19,0-39.68,31.72-71.13,71.67-71.08,39.12.05,70.69,31.81,70.65,71.06ZM208.32,240.47c-21.54-.13-39.44,17.36-39.58,38.68-.15,22.12,17.25,40.05,39.08,40.29,21.32.23,39.6-17.81,39.81-39.29.21-21.44-17.72-39.55-39.31-39.68Z" style="fill: #fff;"/>
  <path d="M409.76,479.93c7.68-18.75,15.13-36.93,22.58-55.11.45-.08.9-.15,1.35-.23,7.38,18.24,14.76,36.49,22.39,55.34h-46.32ZM433.62,436.03c-.42.06-.83.12-1.25.18-5.31,12.97-10.61,25.94-16.1,39.35h33.32c-5.49-13.59-10.74-26.56-15.98-39.52Z" style="fill: #c1272d;"/>
  <path d="M57.92,317.74c-6.16,0-12.33-.13-18.49.05-3.3.09-4.42-1.27-4.35-4.42.14-5.48.13-10.97,0-16.46-.07-3,1.17-4.16,4.13-4.15,12.32.08,24.65-.17,36.97.15,8.18.21,12.24,5.12,11.96,13.37-.25,7.42-4.64,11.39-12.74,11.45-5.83.04-11.66,0-17.49,0ZM39.78,297.57c0,4.69-.17,8.97.13,13.21.07.93,1.83,2.47,2.83,2.49,11.64.17,23.28.3,34.91-.02,4.34-.12,6.13-3.38,6.19-7.6.06-4.14-1.38-7.81-5.75-7.94-12.58-.38-25.17-.13-38.31-.13Z" style="fill: #c1272d;"/>
  <path d="M55.25,240.36c5.33,0,10.66-.18,15.98.05,6.38.27,10.37,5.15,10.39,12.27.03,6.74-3.89,11.92-10.01,12.1-10.98.32-21.98.22-32.96-.03-1.2-.03-3.27-2.2-3.35-3.48-.36-5.79-.36-11.64,0-17.43.08-1.23,2.19-3.23,3.47-3.32,5.47-.37,10.98-.16,16.47-.15ZM56.98,244.68h-6.48c-11.83,0-11.76,0-10.85,12.05.21,2.71,1.17,3.83,3.92,3.8,8.81-.09,17.63.06,26.44-.07,4.87-.07,7.03-2.58,7.09-7.63.06-5.39-2.1-7.95-7.15-8.12-4.32-.14-8.64-.03-12.97-.04Z" style="fill: #c1272d;"/>
  <path d="M356.98,317.74c-6.31,0-12.63-.1-18.94.04-2.98.06-4.18-1.06-4.11-4.06.13-5.64.15-11.28,0-16.92-.09-3.11,1.31-4.05,4.17-4.03,12.13.07,24.26-.15,36.39.13,8.61.2,12.8,4.93,12.56,13.3-.21,7.53-4.69,11.5-13.11,11.55-5.65.03-11.3,0-16.95,0ZM359,313.42c5.17,0,10.33.07,15.5-.02,5.66-.09,8.06-2.46,8.13-7.79.07-5.57-2.38-8.1-8.26-8.17-8.16-.09-16.33-.03-24.5-.03-12.67,0-12.6,0-11.55,12.58.22,2.57,1.19,3.48,3.68,3.44,5.66-.09,11.33-.03,17-.02Z" style="fill: #c1272d;"/>
  <path d="M353.85,240.35c5.15,0,10.3-.1,15.44.03,6.97.17,10.98,4.59,11.06,11.96.09,7.7-3.87,12.42-10.99,12.53-10.46.17-20.92-.02-31.38.09-3.02.03-4.13-1.14-4.05-4.11.13-5.47.18-10.94-.02-16.41-.12-3.41,1.43-4.24,4.5-4.14,5.14.17,10.29.05,15.44.05ZM355.82,244.7v-.02c-2.16,0-4.31,0-6.47,0-11.75,0-11.69,0-11.03,11.99.15,2.63.86,3.92,3.74,3.88,8.96-.11,17.92.05,26.88-.08,4.78-.07,6.97-2.66,7.01-7.69.05-5.32-2.16-7.9-7.19-8.06-4.31-.14-8.63-.03-12.94-.03Z" style="fill: #c1272d;"/>
  <path d="M494.78,317.74c-6.16,0-12.32-.13-18.47.05-3.31.1-4.41-1.24-4.32-4.4.15-5.48.14-10.97,0-16.45-.07-2.96,1.04-4.2,4.05-4.18,12.32.09,24.64-.16,36.95.17,8.15.22,12.39,5.28,12.06,13.33-.31,7.32-4.82,11.4-12.78,11.47-5.83.05-11.65,0-17.48,0ZM496.55,313.43c5.17,0,10.33.04,15.5-.01,5.98-.06,8.53-2.43,8.6-7.86.07-5.49-2.47-8.04-8.35-8.11-8.16-.09-16.33-.17-24.49,0-13.36.28-11.18-2.86-11.47,12.11-.06,3.16,1.35,3.98,4.23,3.91,5.33-.14,10.66-.04,15.99-.04Z" style="fill: #c1272d;"/>
  <path d="M492.24,240.35c4.99,0,9.98-.1,14.97.03,7,.18,11.06,4.63,11.14,11.97.09,7.64-3.95,12.4-11.1,12.52-10.31.17-20.62-.05-30.93.1-3.28.05-4.43-1.19-4.33-4.37.16-5.31.15-10.63,0-15.93-.09-3.15.97-4.5,4.3-4.37,5.31.21,10.64.06,15.96.06ZM493.83,244.7v-.02c-2.16,0-4.32-.05-6.47,0-12.79.37-10.78-2.8-11.01,11.96-.04,2.65.81,3.93,3.7,3.9,8.96-.11,17.92.05,26.88-.08,4.78-.07,7.02-2.69,7.08-7.67.06-5.27-2.21-7.9-7.23-8.07-4.31-.14-8.63-.03-12.94-.03Z" style="fill: #c1272d;"/>
  <path d="M208.32,240.47c21.58.13,39.52,18.24,39.31,39.68-.21,21.47-18.49,39.52-39.81,39.29-21.83-.24-39.23-18.17-39.08-40.29.14-21.32,18.04-38.81,39.58-38.68ZM173.08,279.65c-.07,19.55,15.79,35.51,35.12,35.33,19.32-.18,34.91-15.88,34.87-35.12-.03-19.27-15.68-34.96-34.91-35.01-19.27-.05-35.01,15.56-35.08,34.8Z" style="fill: #c1272d;"/>
</svg>